<svg version="1.2" xmlns="http://www.w3.org/2000/svg" viewBox="0 0 71 73" width="71" height="73"><style>tspan{white-space:pre}</style><path fill-rule="evenodd" d="m42.6 61.1c0 2.4-1.1 4.6-2.9 6.1q-0.1 0-0.2 0.1-0.6 0.4-1.2 0.7-0.2 0.1-0.4 0.2c-0.2 0-0.4 0-0.5-0.2-0.1-0.2 0-0.4 0.1-0.5q0.2-0.2 0.3-0.3 0.3-0.3 0.5-0.5l0.1-0.1q0.2-0.2 0.4-0.4c0.7-1 1.2-2.2 1.4-3.4 0.2-1.2 0-2.5-0.5-3.5-0.5-0.9-1.3-1.6-2.2-2.1-1.5-0.8-3.4-0.8-4.9 0-1 0.5-1.8 1.2-2.2 2.1-0.6 1-0.8 2.3-0.6 3.5 0.2 1.2 0.7 2.4 1.5 3.4q0.2 0.2 0.3 0.4l0.2 0.1q0.2 0.2 0.4 0.5 0.2 0.1 0.3 0.2c0.2 0.2 0.3 0.4 0.2 0.6-0.1 0.1-0.3 0.2-0.4 0.2q-0.1 0-0.1 0-0.2-0.1-0.5-0.2-0.6-0.3-1.1-0.7-0.1-0.1-0.2-0.2c-1.9-1.4-3-3.6-3-6 0-4.2 3.4-7.6 7.6-7.6 4.2 0 7.6 3.4 7.6 7.6zm-1.8 3.3c0.6-1 0.9-2.1 0.9-3.3 0-3.6-3-6.6-6.7-6.6-3.6 0-6.6 3-6.6 6.6 0 1.2 0.3 2.3 0.9 3.3q-0.2-0.5-0.3-0.9c-0.3-1.5-0.2-3 0.3-4.2 0.5-1.1 1.4-2.1 2.4-2.7 2-1.3 4.6-1.3 6.6 0 1.1 0.6 2 1.6 2.4 2.7 0.6 1.2 0.7 2.7 0.4 4.2q-0.1 0.4-0.3 0.9zm20.7-11.2c0.4 2 0.1 4.1-1 5.8-1.4 2.3-3.9 3.7-6.6 3.7q-0.2 0-0.4 0-0.5-0.1-1.1-0.2c-0.2 0-0.4-0.2-0.3-0.4 0-0.2 0.2-0.4 0.4-0.4q0.5 0.1 1 0 0.3 0 0.6-0.1c1.1-0.2 2-0.8 2.8-1.6 0.7-0.8 1.2-1.9 1.4-3 0.1-1.1-0.1-2.2-0.6-3.1q-0.4-0.7-1-1.3-0.4-0.4-0.9-0.7-0.5-0.4-1-0.5-0.8-0.3-1.6-0.3c-1.1-0.1-2.2 0.2-3.1 0.8-0.9 0.6-1.7 1.5-2.1 2.6-0.4 1-0.5 2.1-0.2 3.1q0 0.2 0.1 0.5 0.2 0.5 0.4 0.9c0.1 0.2 0.1 0.5-0.1 0.6-0.2 0.1-0.5 0-0.6-0.1q-0.3-0.5-0.6-1c-1.2-2.5-1.1-5.4 0.3-7.7 2.3-3.6 7.1-4.7 10.7-2.4 1.8 1.1 3 2.8 3.5 4.8zm-2.4 4.4c-0.2 1.1-0.7 2.1-1.5 3 0.8-0.5 1.5-1.2 2.1-2.1 1.9-3.1 1-7.3-2.2-9.3-3.2-2-7.3-1-9.3 2.1q-0.8 1.2-1 2.6c0.5-1 1.1-1.9 2-2.5 1-0.8 2.3-1.3 3.6-1.3q0.1 0 0.1 0c1.2 0 2.4 0.4 3.4 1 1 0.6 1.9 1.6 2.4 2.7 0.5 1.2 0.7 2.5 0.4 3.8zm8.9-18.9c-0.9 2.3-2.9 4-5.4 4.5q-0.1 0-0.3 0 0 0-0.1 0c-0.1 0-0.3-0.1-0.3-0.2-0.1-0.2-0.1-0.4 0.1-0.5q0.1-0.1 0.2-0.2 0.6-0.5 1-1.2c0.3-0.6 0.4-1.3 0.3-2-0.2-0.7-0.4-1.3-0.9-1.8-1.2-1.5-3.5-1.7-5.1-0.5-0.5 0.4-0.9 0.9-1.1 1.6q-0.2 0.8-0.1 1.6 0 0.1 0 0.3c0 0.1-0.1 0.3-0.2 0.4q0 0 0 0 0 0 0 0c-0.2 0.1-0.4 0-0.5-0.1q-0.1-0.1-0.2-0.3c-1.5-2-1.8-4.6-0.9-6.9 1.5-3.7 5.7-5.6 9.4-4.1 3.7 1.5 5.6 5.7 4.1 9.4zm-0.9-0.3c0.6-1.6 0.6-3.3-0.1-4.9-0.6-1.5-1.9-2.7-3.4-3.3-1.6-0.6-3.3-0.6-4.9 0.1-1.5 0.6-2.7 1.9-3.3 3.4-0.6 1.6-0.6 3.2 0 4.7q0 0 0 0c0.2-0.9 0.7-1.6 1.3-2.2 0.6-0.5 1.4-0.9 2.3-1.1q0.4 0 0.8 0c1.5 0 2.8 0.6 3.7 1.8 0.5 0.7 0.8 1.5 0.9 2.4 0.1 0.8-0.1 1.7-0.5 2.4q0 0 0 0.1c1.4-0.7 2.6-1.9 3.2-3.4zm-18.8-16.5c-1.4-1.5-2.2-3.5-2.1-5.6 0.1-2 1-3.9 2.5-5.3 1.5-1.4 3.4-2.1 5.5-2.1 2.1 0.1 4 1 5.4 2.5 1.8 1.9 2.4 4.6 1.8 7.2q-0.1 0.2-0.1 0.3c-0.1 0.2-0.3 0.3-0.4 0.3-0.2 0-0.4-0.2-0.4-0.3q0-0.2-0.1-0.3-0.2-0.9-0.8-1.5c-0.4-0.6-1-1-1.7-1.2-0.7-0.2-1.5-0.2-2.2 0-2 0.5-3.3 2.6-2.8 4.6 0.1 0.7 0.5 1.4 1 1.9 0.4 0.4 0.9 0.7 1.5 0.9q0.1 0 0.3 0c0.1 0.1 0.3 0.3 0.3 0.4q0 0 0 0 0 0 0 0c0 0.2-0.2 0.4-0.3 0.4q-0.2 0.1-0.3 0.1-0.8 0.1-1.5 0.1c-2.1 0-4.2-0.8-5.6-2.4zm1-10.2c-1.3 1.2-2.1 2.9-2.1 4.7-0.1 1.8 0.6 3.5 1.8 4.8 1.2 1.3 2.9 2.1 4.6 2.2q-0.1-0.1-0.1-0.1c-0.7-0.6-1.2-1.4-1.5-2.2-0.2-0.9-0.2-1.8 0-2.7 0.5-1.8 2-3.2 3.8-3.5 0.9-0.2 1.8-0.1 2.7 0.2 0.8 0.3 1.5 0.9 2.1 1.6q0 0.1 0 0.1c0.1-1.7-0.5-3.5-1.7-4.8-1.3-1.3-2.9-2-4.7-2.1q-0.2 0-0.3 0c-1.7 0-3.3 0.6-4.6 1.8zm-25.3 39.7c0.9 1.9 1 4 0.3 5.9-1.2 3.2-4.1 5.1-7.3 5.1q-1.3 0-2.7-0.5c-2.6-0.9-4.5-3.3-4.9-6q-0.1-0.6-0.1-1.2c0-0.2 0.2-0.4 0.4-0.4 0.2-0.1 0.4 0.2 0.4 0.3q0.1 0.6 0.2 1.1 0.1 0.3 0.2 0.5c0.5 1 1.2 1.8 2.1 2.4 1 0.5 2.2 0.8 3.3 0.7 1.1-0.1 2.1-0.5 2.9-1.2q0.6-0.5 1.1-1.2 0.3-0.4 0.5-1 0.2-0.6 0.3-1.2 0.1-0.8 0-1.6c-0.2-1-0.7-2-1.5-2.8-0.8-0.8-1.8-1.3-2.9-1.5-1.1-0.2-2.2-0.1-3.2 0.4q-0.2 0.1-0.4 0.2-0.4 0.3-0.8 0.6c-0.2 0.2-0.5 0.1-0.6 0-0.1-0.1-0.1-0.4 0-0.6q0.4-0.4 0.9-0.8c2.1-1.7 5-2.2 7.5-1.2 1.9 0.7 3.5 2.1 4.3 4zm-4.1 9.4c1.6-0.8 2.9-2.1 3.5-3.8 0.6-1.7 0.5-3.5-0.2-5.2-0.8-1.6-2.1-2.9-3.8-3.5-0.9-0.3-1.8-0.5-2.7-0.4 1 0.2 2 0.7 2.8 1.4 1 0.9 1.7 2 2 3.3 0.3 1.2 0.2 2.5-0.2 3.6-0.4 1.1-1.2 2.2-2.2 2.9-1.1 0.8-2.3 1.2-3.6 1.2q0 0 0 0c-1.2 0-2.3-0.3-3.2-0.8 0.6 0.6 1.5 1.2 2.4 1.5 1.7 0.6 3.5 0.6 5.2-0.2zm-10.1-17.6c-2.9 0-5.6-1.7-6.8-4.6-0.9-2.3-0.5-4.9 0.9-6.9q0.1-0.1 0.2-0.3 0 0 0 0c0.1-0.1 0.4-0.2 0.5-0.1 0.2 0.1 0.3 0.3 0.2 0.5q0 0.1 0 0.2-0.1 0.9 0.2 1.6c0.2 0.7 0.5 1.2 1.1 1.6 1.5 1.2 3.8 1 5-0.5 0.5-0.5 0.8-1.1 0.9-1.8 0.1-0.7 0-1.3-0.3-1.9q-0.3-0.8-1-1.3-0.1-0.1-0.2-0.2c-0.1-0.1-0.2-0.3-0.1-0.5 0.1-0.1 0.3-0.2 0.4-0.2q0.2 0 0.3 0c2.5 0.5 4.5 2.2 5.4 4.5 1.5 3.7-0.3 8-4 9.4q-1.4 0.5-2.7 0.5zm-5.9-4.9c1.3 3.2 5 4.8 8.2 3.5 3.2-1.2 4.8-4.9 3.6-8.1-0.6-1.6-1.8-2.8-3.3-3.5q0 0.1 0.1 0.1c0.4 0.8 0.5 1.6 0.5 2.4-0.1 0.9-0.4 1.7-0.9 2.4-1.1 1.4-2.9 2.1-4.6 1.8-0.8-0.2-1.6-0.6-2.2-1.1-0.7-0.6-1.1-1.3-1.3-2.2q0 0 0 0 0 0 0 0c-0.7 1.5-0.7 3.2-0.1 4.7zm7.6-16.4c-1.8-2-2.5-4.7-1.8-7.3q0-0.1 0.1-0.3c0-0.1 0.2-0.3 0.4-0.3 0.2 0.1 0.3 0.2 0.4 0.4q0 0.1 0 0.3 0.2 0.8 0.8 1.5c0.4 0.6 1.1 1 1.7 1.2 0.7 0.2 1.5 0.2 2.2 0 2-0.5 3.3-2.6 2.8-4.7-0.1-0.7-0.5-1.3-1-1.8-0.4-0.4-0.9-0.7-1.5-0.9q-0.1 0-0.2-0.1c-0.2 0-0.4-0.2-0.4-0.4q0 0 0 0c0.1-0.2 0.2-0.3 0.4-0.4q0.1 0 0.3 0c2.6-0.5 5.3 0.3 7.1 2.3 2.9 3.1 2.7 8-0.4 10.9-1.5 1.3-3.3 2-5.3 2q-0.1 0-0.3 0c-2 0-3.9-0.9-5.3-2.4zm7.5-7c-0.5 1.8-1.9 3.1-3.8 3.5-0.9 0.2-1.8 0.1-2.6-0.2-0.9-0.3-1.6-0.9-2.1-1.6q-0.1-0.1-0.1-0.2c-0.1 1.8 0.6 3.5 1.8 4.8 1.2 1.3 2.9 2.1 4.7 2.2 1.8 0 3.5-0.6 4.8-1.8 2.7-2.6 2.9-6.8 0.4-9.6-1.3-1.3-2.9-2-4.7-2.1q0.1 0 0.1 0.1c0.7 0.6 1.2 1.3 1.5 2.2 0.2 0.9 0.2 1.8 0 2.7zm8.8-5.6c0-4 3.2-7.2 7.2-7.2 4 0 7.3 3.2 7.3 7.2 0 4-3.3 7.2-7.3 7.2-4 0-7.2-3.2-7.2-7.2zm1 0c0 3.5 2.8 6.3 6.2 6.3 3.5 0 6.3-2.8 6.3-6.3 0-3.5-2.8-6.3-6.3-6.3-3.4 0-6.2 2.8-6.2 6.3zm20.4 31.9c-3.1 7.2-11.8 10.4-19.1 7.7-3.7-1.3-6.7-4.1-8.3-7.7-1.5-3.6-1.7-7.9-0.3-11.6 0.5-1.3 1.2-2.5 2.1-3.5 6.9-8.9 21.8-7.2 25.9 3.5 1.4 3.7 1.3 8-0.3 11.6zm-0.5-9.7c-0.9-3.5-3.1-6.3-6.2-8.1-4.3-2.5-9.7-2.5-13.9 0-3.1 1.8-5.4 4.6-6.2 8.1-0.9 3.4-0.4 7.2 1.3 10.3 1.7 3.2 4.7 5.4 8.2 6.3 5.8 1.5 12.5-0.9 15.4-6.3 1.8-3.1 2.2-6.9 1.4-10.3z"/></svg>